<?xml version="1.0" standalone="no"?><!DOCTYPE svg PUBLIC "-//W3C//DTD SVG 1.1//EN" "http://www.w3.org/Graphics/SVG/1.1/DTD/svg11.dtd"><svg width="200" height="200" viewBox="0 0 200 200" version="1.1" xmlns="http://www.w3.org/2000/svg" xmlns:xlink="http://www.w3.org/1999/xlink"><defs><style type="text/css"><![CDATA[

]]></style></defs><g class="transform-group"><g transform="scale(0.1953125, 0.1953125)"><path d="M809.984 128q34.005333 0 59.989333 25.984t25.984 59.989333l0 596.010667q0 34.005333-25.984 59.989333t-59.989333 25.984l-596.010667 0q-36.010667 0-61.013333-25.984t-25.002667-59.989333l0-169.984 86.016 0 0 169.984 596.010667 0 0-596.010667-596.010667 0 0 169.984-86.016 0 0-169.984q0-34.005333 25.002667-59.989333t61.013333-25.984l596.010667 0zM429.994667 665.984l109.994667-112-411.989333 0 0-84.010667 411.989333 0-109.994667-112 59.989333-59.989333 214.016 214.016-214.016 214.016z" fill="#ffffff"></path></g></g></svg>