<?xml version="1.0" standalone="no"?><!DOCTYPE svg PUBLIC "-//W3C//DTD SVG 1.1//EN" "http://www.w3.org/Graphics/SVG/1.1/DTD/svg11.dtd"><svg width="200" height="200" viewBox="0 0 200 200" version="1.1" xmlns="http://www.w3.org/2000/svg" xmlns:xlink="http://www.w3.org/1999/xlink"><defs><style type="text/css"><![CDATA[

]]></style></defs><g class="transform-group"><g transform="scale(0.1953125, 0.1953125)"><path d="M512 768l0-128 169.984 169.984-169.984 171.989333 0-128q-139.989333 0-240.981333-100.992t-100.992-240.981333q0-100.010667 54.016-182.016l61.994667 61.994667q-29.994667 54.016-29.994667 120.021333 0 105.984 75.008 180.992t180.992 75.008zM512 169.984q139.989333 0 240.981333 100.992t100.992 240.981333q0 100.010667-54.016 182.016l-61.994667-61.994667q29.994667-54.016 29.994667-120.021333 0-105.984-75.008-180.992t-180.992-75.008l0 128-169.984-169.984 169.984-171.989333 0 128z" fill="#ffffff"></path></g></g></svg>